# xmcd CD Database Entry
#
# Track frame offsets:
# 150
# 14861
# 31808
# 48200
# 64032
# 73350
# 87589
# 105521
# 127914
# 148499
# 163996
# 179947
# 200645
# 220321
# 244405
# 262116
# 284687
# 299957
# 318677
# 337935
#
# Disc length: 4717 seconds
#
# Revision: 1
# Processed by: cddbd v1.4PL0 Copyright (c) Steve Scherf et al.
# Submitted via: tcd 2.0b
#
DISCID=62126b14
DTITLE=Pink - M!ssundaztood
DYEAR=1900
DGENRE=
TTITLE0=Get the Party Started
TTITLE1=18 Wheeler
TTITLE2=M!ssundaztood
TTITLE3=Dear Diary
TTITLE4=Eventually
TTITLE5=Numb
TTITLE6=Just Like a Pill
TTITLE7=Family Portrait
TTITLE8=Misery
TTITLE9=Respect
TTITLE10=Don't Let Me Get Me
TTITLE11=Gone to California
TTITLE12=Lonely Girl
TTITLE13=My Vietnam
TTITLE14=Catch 22
TTITLE15=Most Girls
TTITLE16=There You Go
TTITLE17=You Make Me Sick
TTITLE18=Private Show
TTITLE19=Hiccup
EXTD=
EXTT0=
EXTT1=
EXTT2=
EXTT3=
EXTT4=
EXTT5=
EXTT6=
EXTT7=
EXTT8=
EXTT9=
EXTT10=
EXTT11=
EXTT12=
EXTT13=
EXTT14=
EXTT15=
EXTT16=
EXTT17=
EXTT18=
EXTT19=
PLAYORDER=
